<?xml version="1.0" encoding="utf-8"?>
<!-- Generator: Adobe Illustrator 18.1.0, SVG Export Plug-In . SVG Version: 6.00 Build 0)  -->
<!DOCTYPE svg PUBLIC "-//W3C//DTD SVG 1.1//EN" "http://www.w3.org/Graphics/SVG/1.1/DTD/svg11.dtd">
<svg version="1.1" id="Layer_1" xmlns="http://www.w3.org/2000/svg" xmlns:xlink="http://www.w3.org/1999/xlink" x="0px" y="0px"
	 viewBox="0 0 2819 2918" enable-background="new 0 0 2819 2918" xml:space="preserve">
<circle id="ring_6_" fill="none" stroke="#FFFFFF" stroke-width="73.7563" stroke-miterlimit="10" cx="1402.4" cy="1557.4" r="1320.6"/>
<circle id="circle_12_" fill="#1C6497" stroke="#FFFFFF" stroke-width="52.6831" stroke-miterlimit="10" cx="1402.4" cy="1557.4" r="1320.6"/>
<g>
	<path fill="#3AABC6" d="M2106.8,2478.4H499.1l78.7-129.6c6.9-11.4,775.5-1153.8,775.5-2117.3h98.3
		c0,963.5,768.6,2105.9,775.5,2117.3l78.7,129.6L2106.8,2478.4z M892.8,2292.6H1912c-121-219.2-360.2-688.3-509.6-1216.5
		C1253,1604.4,1013.8,2073.4,892.8,2292.6z"/>
</g>
<g>
	<path fill="#FDDA00" d="M1908.7,2316.8H753.1l56.6-120.3c5-10.6,557.4-1070.8,557.4-1965h70.6c0,894.2,552.4,1954.4,557.4,1965
		l56.5,120.3H1908.7z M1036.1,2144.4h732.6c-87-203.4-258.9-638.8-366.3-1129C1295,1505.6,1123.1,1940.9,1036.1,2144.4z"/>
</g>
<g>
	<path fill="#F68521" d="M1766.3,2270.3H935.7l40.7-117.6c3.6-10.4,409.1-1046.9,409.1-1921.2h33.9
		c0,874.3,405.5,1910.8,409.1,1921.2l40.7,117.6H1766.3z"/>
</g>
<path fill="#DF572F" d="M1402.4,231.5c0,902.6-262.3,1954.5-262.3,1954.5h262.3h262.3C1664.7,2186,1402.4,1134.1,1402.4,231.5z"/>
<g>
	<defs>
		<path id="SVGID_1_" d="M1401.6,257.8c712.4,0,1289.9,580.8,1289.9,1297.3c0,341-129.4,654.8-343.3,886.4
			c-235.5,254.9-573.3,410.9-946.5,410.9c-387.9,0-738-171.3-974.4-443.9c-197.8-228-315.4-527.1-315.4-853.5
			C111.7,838.7,689.2,257.8,1401.6,257.8z"/>
	</defs>
	<clipPath id="SVGID_2_">
		<use xlink:href="#SVGID_1_"  overflow="visible"/>
	</clipPath>
	<g clip-path="url(#SVGID_2_)">
		<ellipse fill="#1C6497" cx="1404.7" cy="3044.1" rx="1253.6" ry="905.3"/>
		<g>
			<defs>
				<ellipse id="SVGID_3_" cx="1404.5" cy="3044.1" rx="1253.4" ry="905.3"/>
			</defs>
			<clipPath id="SVGID_4_">
				<use xlink:href="#SVGID_3_"  overflow="visible"/>
			</clipPath>
			<path clip-path="url(#SVGID_4_)" fill="#A5CF5A" d="M3479,2757.1c-23.2,6.7-40.2,26.3-43.8,50.1c-7.6,50.6-26.7,135.4-70.5,158
				c-63.6,32.8-117.8,79.9-119.5,147c0,0-2.6,52.6,40.3,53.8c25.9,0.7,42.2-16.4,51-30c4.6-7.2,7.7-15.3,8.9-23.8
				c1.3-9.4,5.6-24.2,19.4-22.8c20.2,2,11.1,32.3,11.1,32.3s-9.6,116.8,46.7,110.9c66.7-7,22-108,134.3-124.7
				c79.2-11.8-8,22.9-26.2-26.6c-18.2-49.5-37.1-148.2-6.4-173.8s42.7-28,62.8-22.6c9,2.4,13.3,11.8,15.4,21.5
				c2.8,13.3,0.6,27.1-5.5,39.2c-8.9,17.5-25.4,47-45.4,69c-12.1,13.3-14.4,27.9-12.9,40.6c2.9,23.6,20.9,42.3,43.7,49.4
				c24.5,7.7,60.2,7.6,92.6-35c39.8-52.4,162.7-108.5,231.6-137c27.8-11.5,43.1-41.2,36.6-70.6l-13.6-61
				c-5-22.6-22.3-40.6-44.7-46.4c-69.7-18.2-214.5-56.2-209.1-56.2C3681.2,2698.5,3547.5,2737.3,3479,2757.1z"/>
			<g clip-path="url(#SVGID_4_)">
				<path fill="#A5CF5A" d="M1300.3,3371.8c-2.2-2.2-5.2-3.4-8.3-3.4h-47c-3.1,0-6.1-1.2-8.3-3.4l-49.9-49.9
					c-2.2-2.2-5.2-3.4-8.3-3.4h-47c-3.1,0-6.1-1.2-8.3-3.4l-106.6-106.6c-2.2-2.2-5.2-3.4-8.3-3.4h-47c-3.1,0-6.1-1.2-8.3-3.4
					l-49.9-49.9c-2.2-2.2-5.2-3.4-8.3-3.4H791.1c-3.1,0-6.1,1.2-8.3,3.4l-21.5,21.5c-2.2,2.2-5.2,3.4-8.3,3.4h-47
					c-3.1,0-6.1-1.2-8.3-3.4l-135-135c-2.2-2.2-5.2-3.4-8.3-3.4h-47c-3.1,0-6.1-1.2-8.3-3.4l-49.9-49.9c-2.2-2.2-3.4-5.2-3.4-8.3
					v-47c0-3.1,1.2-6.1,3.4-8.3l49.9-49.8c2.2-2.2,5.2-3.4,8.3-3.4h160.5c3.1,0,6.1-1.2,8.3-3.4l209.3-209.4
					c9.1-9.1,21.4-14.2,34.3-14.2h0c23.5,0,46.1-9.3,62.7-26l72.9-72.9c9.4-9.4,22-14.6,35.3-14.6c23.1,0,45.3-9.2,61.6-25.5
					c17.2-17.2,17.2-45.2,0-62.4l-0.3-0.3c-16.1-16.2-38-25.2-60.9-25.2c-11.6,0-21.1-9.4-21.1-21.1c0-19.7-15.9-35.6-35.6-35.6
					c-13.5,0-26.5,5.4-36.1,14.9l-83.6,83.6c-23.9,23.9-62.7,23.9-86.7,0l-35.9-35.9c-18.9-18.9-19-49.7,0-68.6
					c14.3-14.4,33.8-22.4,54.1-22.4h7.2c11.5,0,22.5-4.6,30.6-12.7l1.3-1.4c9.2-9.2,21.6-14.3,34.6-14.3h7.3
					c18.7,0,36.7-7.4,49.9-20.7l7.9-7.9c15.5-15.5,40.8-15.5,56.3,0l60.7,60.7c13.6,13.6,35.7,13.6,49.3,0l10.1-10.1
					c14.1-14.1,22-33.2,22-53.2v-7.4c0-11.6-4.6-22.8-12.8-31l-6.1-6.1c-20.9-20.9-20.9-54.8,0-75.7l16.3-16.3
					c21.9-21.9,6.4-59.3-24.6-59.3h-81.5c-3.1,0-6.1,1.2-8.3,3.4l-106.6,106.6c-2.2,2.2-5.2,3.4-8.3,3.4h-47.1
					c-3.1,0-6.1,1.2-8.3,3.4l-45,45c-4.6,4.6-12,4.6-16.6,0l-45-45c-2.2-2.2-5.2-3.4-8.3-3.4H620.8c-3.1,0-6.1,1.2-8.3,3.4
					l-49.9,49.9c-2.2,2.2-5.2,3.4-8.3,3.4H393.9c-3.1,0-6.1-1.2-8.3-3.4l-21.5-21.5c-2.2-2.2-5.2-3.4-8.3-3.4H195.3
					c-3.1,0-6.1,1.2-8.3,3.4l-21.5,21.5c-2.2,2.2-5.2,3.4-8.3,3.4h-47c-3.1,0-6.1,1.2-8.3,3.4L-28.3,2367c-4.6,4.6-4.6,12,0,16.6
					l16.7,16.7c2.2,2.2,5.2,3.4,8.3,3.4h47c3.1,0,6.1-1.2,8.3-3.4l49.9-49.8c2.2-2.2,5.2-3.4,8.3-3.4h103.7c3.1,0,6.1,1.2,8.3,3.4
					l49.9,49.8c2.2,2.2,3.4,5.2,3.4,8.3v103.8c0,3.1-1.2,6.1-3.4,8.3l-49.9,49.9c-2.2,2.2-3.4,5.2-3.4,8.3v47c0,3.1-1.2,6.1-3.4,8.3
					l-49.9,49.9c-2.2,2.2-3.4,5.2-3.4,8.3v47c0,3.1,1.2,6.1,3.4,8.3l106.6,106.7c2.2,2.2,3.4,5.2,3.4,8.3v47c0,3.1,1.2,6.1,3.4,8.3
					l163.3,163.4c2.2,2.2,5.2,3.4,8.3,3.4h47.1c3.1,0,6.1,1.2,8.3,3.4l106.6,106.6c2.2,2.2,5.2,3.4,8.3,3.4h47
					c3.1,0,6.1,1.2,8.3,3.4l21.5,21.5c2.2,2.2,3.4,5.2,3.4,8.3v46.9c0,3.1-1.2,6.1-3.4,8.3l-21.5,21.6c-2.2,2.2-3.4,5.2-3.4,8.3
					v103.8c0,3.1,1.2,6.1,3.4,8.3l21.5,21.5c2.2,2.2,3.4,5.2,3.4,8.3v47c0,3.1,1.2,6.1,3.4,8.3l135,135c2.2,2.2,3.4,5.2,3.4,8.3v274
					c0,3.1,1.2,6.1,3.4,8.3l49.9,49.9c2.2,2.2,3.4,5.2,3.4,8.3v103.7c0,3.1,1.2,6.1,3.4,8.3l49.9,49.9c2.2,2.2,5.2,3.4,8.3,3.4h40.1
					c6.5,0,11.7-5.2,11.7-11.7v-40.2c0-3.1-1.2-6.1-3.4-8.3l-21.5-21.5c-2.2-2.2-3.4-5.2-3.4-8.3v-47.1c0-3.1,1.2-6.1,3.4-8.3
					l78.2-78.2c2.2-2.2,3.4-5.2,3.4-8.3v-47.1c0-3.1,1.2-6.1,3.4-8.3l106.6-106.6c2.2-2.2,3.4-5.2,3.4-8.3l0-47
					c0-3.1,1.2-6.1,3.4-8.3l106.6-106.7c2.2-2.2,3.4-5.2,3.4-8.3l0-47c0-3.1,1.2-6.1,3.4-8.3l49.8-49.9c2.2-2.2,3.4-5.2,3.4-8.3v-47
					c0-3.1-1.2-6.1-3.4-8.3L1300.3,3371.8z"/>
				<path fill="#A5CF5A" d="M1555.2,2256.6c8-8,18.9-12.5,30.2-12.5h18.2c13.3,0,26.1-5.3,35.5-14.7l102.2-102.2
					c13.8-13.8,13.8-36.1,0-49.8c-2.2-2.2-5.2-3.4-8.3-3.4h-418.6c-19.5,0-38.2,7.8-52,21.6l-14.1,14.1c-11.6,11.6-11.6,30.5,0,42.2
					c4.7,4.7,11,7.3,17.6,7.3h32.7c8.9,0,17.4,3.5,23.6,9.8c11.9,11.9,18.5,28,18.5,44.8v2.4c0,18-7.1,35.2-19.8,47.9l-4.7,4.7
					c-17.8,17.8-17.8,46.5,0,64.3c15.8,15.8,37.1,24.6,59.4,24.6h2.9c12.2,0,23.9-4.8,32.5-13.4l25.5-25.5
					c11.4-11.4,26.9-17.8,43-17.8h12.4c12.2,0,24-4.9,32.6-13.5L1555.2,2256.6z"/>
				<path fill="#A5CF5A" d="M2485.9,3529c-4.6-4.6-12-4.6-16.6,0l-73.3,73.4c-2.2,2.2-3.4,5.2-3.4,8.3v103.8c0,3.1,1.2,6.1,3.4,8.3
					l16.6,16.6c4.6,4.6,12,4.6,16.6,0l16.6-16.6c2.2-2.2,3.4-5.2,3.4-8.3v-47.1c0-3.1,1.2-6.1,3.4-8.3l49.9-49.9
					c2.2-2.2,3.4-5.2,3.4-8.3v-47c0-3.1-1.2-6.1-3.4-8.3L2485.9,3529z"/>
				<path fill="#A5CF5A" d="M3422.2,3443.9l-4.9-4.9c-2.2-2.2-5.2-3.4-8.3-3.4h-47c-3.1,0-6.1-1.2-8.3-3.4l-146.8-146.8
					c-7.4-7.4-20-2.2-20,8.3v23.6c0,3.1,1.2,6.1,3.4,8.3l135,135c2.2,2.2,5.2,3.4,8.3,3.4h80.3
					C3424.3,3463.9,3429.6,3451.3,3422.2,3443.9z"/>
				<path fill="#A5CF5A" d="M3494.1,3237h-40.2c-6.5,0-11.7,5.3-11.7,11.7v40.1c0,3.1-1.2,6.1-3.4,8.3l-45,45.1
					c-4.6,4.6-4.6,12,0,16.6l16.7,16.7c2.2,2.2,5.2,3.4,8.3,3.4h47c3.1,0,6.1-1.2,8.3-3.4l21.5-21.5c2.2-2.2,3.4-5.2,3.4-8.3v-47.1
					c0-3.1,1.2-6.1,3.4-8.3l16.6-16.6c4.6-4.6,4.6-12,0-16.6l-16.7-16.6C3500.2,3238.3,3497.2,3237,3494.1,3237z"/>
				<path fill="#A5CF5A" d="M3595.8,3208.7c-6.5,0-11.7,5.2-11.7,11.7v33.3c0,6.5,5.3,11.7,11.7,11.7h33.2c6.5,0,11.7-5.3,11.7-11.7
					v-33.3c0-6.5-5.2-11.7-11.7-11.7H3595.8z"/>
				<path fill="#A5CF5A" d="M3782.6,4003c-10.5,0-15.7,12.6-8.3,20l0,0c4.6,4.6,12,4.6,16.5,0l0,0
					C3798.3,4015.7,3793.1,4003,3782.6,4003z"/>
				<path fill="#A5CF5A" d="M3834.6,3350.5h-47.1c-3.1,0-6.1,1.2-8.3,3.4l-16.6,16.6c-4.6,4.6-12,4.6-16.6,0l-28.5-28.5
					c-7.4-7.4-20-2.1-20,8.3v23.6c0,3.1,1.2,6.1,3.4,8.3l21.5,21.5c2.2,2.2,5.2,3.4,8.3,3.4h47c3.1,0,6.1,1.2,8.3,3.4l49.9,49.8
					c2.2,2.2,5.2,3.4,8.3,3.4h47c3.1,0,6.1,1.2,8.3,3.4l5,5c7.4,7.4,20,2.2,20-8.3v-23.6c0-3.1-1.2-6.1-3.4-8.3l-78.3-78.3
					C3840.6,3351.7,3837.7,3350.5,3834.6,3350.5z"/>
				<path fill="#A5CF5A" d="M3928,3722.8c-2.2-2.2-3.4-5.2-3.4-8.3v-47.1c0-3.1-1.2-6.1-3.4-8.3l-21.5-21.5
					c-2.2-2.2-3.4-5.2-3.4-8.3v-103.8c0-3.1-1.2-6.1-3.4-8.3l-16.6-16.6c-4.6-4.6-12-4.6-16.6,0l-16.6,16.6
					c-2.2,2.2-3.4,5.2-3.4,8.3v47.1c0,3.1-1.2,6.1-3.4,8.3l-16.6,16.6c-4.6,4.6-12,4.6-16.6,0l-68.5-68.5c-4.6-4.6-12-4.6-16.6,0
					l-16.7,16.7c-2.2,2.2-5.2,3.4-8.3,3.4h-47c-3.1,0-6.1,1.2-8.3,3.4l-106.6,106.6c-2.2,2.2-5.2,3.4-8.3,3.4h-47.1
					c-3.1,0-6.1,1.2-8.3,3.4l-49.8,49.9c-2.2,2.2-3.4,5.2-3.4,8.3l0,103.8c0,3.1-1.2,6.1-3.4,8.3l-16.6,16.6c-4.6,4.6-4.6,12,0,16.6
					l16.6,16.6c2.2,2.2,5.2,3.4,8.3,3.4h103.8c3.1,0,6.1-1.2,8.3-3.4l49.9-49.8c2.2-2.2,5.2-3.4,8.3-3.4h47c3.1,0,6.1,1.2,8.3,3.4
					l106.6,106.6c2.2,2.2,5.2,3.4,8.3,3.4h47c3.1,0,6.1-1.2,8.3-3.4l135-135c2.2-2.2,3.4-5.2,3.4-8.3v-47c0-3.1-1.2-6.1-3.4-8.3
					L3928,3722.8z"/>
				<path fill="#A5CF5A" d="M3717.5,2717.9l-11.8-11.8c-4.6-4.6-12-4.6-16.6,0l-96.8,96.9c-4.6,4.6-4.6,12,0,16.6l11.8,11.8
					c4.6,4.6,12,4.6,16.6,0l96.8-96.9C3722.1,2729.9,3722.1,2722.5,3717.5,2717.9z"/>
				<path fill="#A5CF5A" d="M3206,3082.1v107.2c0,3.2,1.3,6.3,3.5,8.6l93,93c7.6,7.6,20.7,2.2,20.7-8.6v-20.8
					c0-5.5-2.2-10.8-6.1-14.6l-73.3-73.3c-4.7-4.7-4.7-12.4,0-17.1l12.2-12.2c4.7-4.7,12.4-4.7,17.1,0l41.4,41.5
					c4.7,4.7,12.4,4.7,17.1,0l46.5-46.5c2.3-2.3,3.6-5.4,3.6-8.6v-48.6c0-3.2-1.3-6.3-3.6-8.6l-46.5-46.5c-4.7-4.7-4.7-12.4,0-17.1
					l46.5-46.5c2.3-2.3,5.4-3.5,8.6-3.5h48.6c3.2,0,6.3-1.3,8.6-3.6l51.5-51.5c2.3-2.3,3.5-5.4,3.5-8.6v-107.2
					c0-3.2-1.3-6.3-3.5-8.6l-51.5-51.5c-2.3-2.3-3.5-5.4-3.5-8.6v-48.6c0-3.2,1.3-6.3,3.5-8.6l17.2-17.2c4.7-4.7,12.4-4.8,17.2,0
					l17.2,17.2c2.3,2.3,5.4,3.6,8.6,3.6h48.6c3.2,0,6.3-1.3,8.6-3.5l51.5-51.5c2.3-2.3,3.5-5.4,3.5-8.6v-107.2
					c0-3.2-1.3-6.3-3.6-8.6l-93.1-93c-7.6-7.6-2.2-20.7,8.6-20.7h83c3.2,0,6.3-1.3,8.6-3.5l46.5-46.5c4.7-4.7,12.4-4.7,17.1,0
					l117.3,117.3c7.6,7.6,20.7,2.2,20.7-8.6v-83c0-3.2,1.3-6.3,3.5-8.6l75.8-75.8c4.7-4.7,4.7-12.4,0-17.1l-46.5-46.5
					c-2.3-2.3-5.4-3.5-8.6-3.5h-400.3c-3.2,0-6.3-1.3-8.6-3.5l-22.2-22.2c-2.3-2.3-5.4-3.5-8.6-3.5h-224.4c-3.2,0-6.3-1.3-8.6-3.5
					l-22.3-22.2c-2.3-2.3-5.3-3.5-8.6-3.5h-165.8c-3.2,0-6.3-1.3-8.6-3.5l-51.6-51.5c-2.3-2.3-5.4-3.5-8.6-3.5h-224.5
					c-3.2,0-6.3,1.3-8.6,3.6l-51.4,51.5c-2.3,2.3-5.4,3.6-8.6,3.6h-48.6c-3.2,0-6.3,1.3-8.6,3.6l-51.5,51.5
					c-2.3,2.3-5.4,3.6-8.6,3.6h-224.5c-3.2,0-6.3,1.3-8.6,3.6l-34.1,9.5c-29.6,8.2-61.4,8.2-90.1-2.9c-2.8-1.1-5.6-2.3-8.4-3.6
					c-9.3-4.3-19.4-6.6-29.9-6.6h-70.8c-36.1,0-70.7,14.3-96.2,39.8l-83.6,83.6c-12.8,12.8-12.8,33.5,0,46.3c3.7,3.7,4.6,9.3,2.3,14
					l-43,85.4c-7.4,14.7-22.5,24-39,24h-15.3c-10.5,0-20.6,4.2-28.1,11.6v0c-10.8,10.8-14.6,26.9-9.8,41.4l9.2,27.7
					c6,18-7.4,36.6-26.3,36.6h-49.3c-18.2,0-35,9.8-43.9,25.7c-9.2,16.3-10.1,36-2.4,53.1l0.9,2c9.9,22.1,31.9,36.3,56.1,36.3
					c12.1,0,23.6-4.8,32.2-13.3l86.7-86.7c11-11,26-17.2,41.6-17.2h3c20.8,0,41.4,3.4,61,10.1l33.8,11.5c14.7,5,30.9,1.2,41.9-9.7
					l0.4-0.4c6.5-6.5,16.8-6.5,23.2,0c3.8,3.8,8.1,8.2,12.7,12.8c21.8,22,51.5,34.3,82.5,34.3c6.6,0,12.9,2.6,17.6,7.3l17.4,17.4
					c21.8,21.7,51.3,34,82,34h57.1c6.7,0,12.1,5.4,12.1,12.1v41.5c0,3.2-1.3,6.3-3.5,8.6l-22.2,22.2c-2.3,2.3-5.4,3.5-8.6,3.5h-31.8
					l36.8,66.1l0-1.4c0-3.9,1.5-7.6,4.3-10.4l4.3-4.3c7.6-7.6,20.7-2.2,20.7,8.6v24.3c0,3.2,1.3,6.3,3.6,8.6l110.2,110.2
					c2.3,2.3,3.5,5.4,3.5,8.6v48.6c0,3.2,1.3,6.3,3.5,8.6l17.2,17.2c4.7,4.7,12.4,4.7,17.1,0l17.2-17.2c2.3-2.3,5.4-3.5,8.6-3.5
					h48.6c3.2,0,6.3-1.3,8.6-3.5l105.1-105.1c4.7-4.7,4.7-12.4,0-17.1l-46.6-46.5c-2.3-2.3-5.4-3.5-8.6-3.5h-48.5
					c-3.2,0-6.3-1.3-8.6-3.5l-46.5-46.5c-4.7-4.7-4.7-12.4,0-17.1l12.2-12.2c4.7-4.7,12.4-4.7,17.1,0l46.5,46.5
					c2.3,2.3,5.4,3.6,8.6,3.6h48.6c3.2,0,6.3,1.3,8.6,3.5l22.2,22.2c2.3,2.3,5.4,3.5,8.6,3.5H2732c3.2,0,6.3,1.3,8.6,3.5l80.9,80.8
					c2.3,2.3,3.6,5.4,3.6,8.6v48.6c0,3.2,1.3,6.3,3.5,8.6l51.5,51.5c2.3,2.3,3.5,5.4,3.5,8.6v48.6c0,3.2,1.3,6.3,3.5,8.6l17.2,17.2
					c4.7,4.7,12.4,4.7,17.2,0l17.2-17.2c2.3-2.3,3.5-5.3,3.5-8.6v-107.2c0-3.2,1.3-6.3,3.5-8.6l80.8-80.8c2.3-2.3,5.4-3.5,8.6-3.5
					h48.6c3.2,0,6.3,1.3,8.6,3.6l110.1,110.2C3204.7,3075.8,3206,3078.8,3206,3082.1z"/>
				<path fill="#A5CF5A" d="M1991.4,3051.6c-3.2,0-6.3-1.3-8.6-3.5l-22.3-22.2c-2.3-2.3-5.4-3.5-8.6-3.5h-48.6
					c-3.2,0-6.3,1.3-8.6,3.6l-17.2,17.2c-4.7,4.7-12.4,4.7-17.1,0l-17.2-17.2c-2.3-2.3-5.4-3.5-8.6-3.5h-48.6
					c-3.2,0-6.3-1.3-8.6-3.6c-35.2-35.3-83-55.1-132.9-55.1h-3c-23.3,0-45.7,9.3-62.1,25.8c-2.3,2.3-5.4,3.6-8.6,3.6
					c-34.3,0-67.3,13.6-91.6,37.9l-51.9,51.9c-36.3,36.3-56.7,85.5-56.7,136.9V3369c0,3.2,1.3,6.3,3.5,8.6l110.2,110.1
					c2.3,2.3,5.4,3.5,8.6,3.5h107.2c3.2,0,6.3-1.3,8.6-3.5l22.3-22.2c2.3-2.3,5.3-3.5,8.6-3.5h48.6c3.2,0,6.3,1.3,8.6,3.5l22.3,22.2
					c2.3,2.3,3.6,5.4,3.6,8.6v107.2c0,3.2,1.3,6.3,3.5,8.6l80.8,80.8c2.3,2.3,3.5,5.4,3.5,8.6v48.6c0,3.2-1.3,6.3-3.5,8.6
					l-22.2,22.3c-2.3,2.3-3.5,5.3-3.5,8.6v107.2c0,3.2,1.3,6.3,3.5,8.6l22.2,22.2c2.3,2.3,3.5,5.4,3.5,8.6v48.6
					c0,3.2,1.3,6.3,3.6,8.6l22.2,22.2c2.3,2.3,3.6,5.4,3.6,8.6v48.6c0,3.2,1.3,6.3,3.6,8.6l51.5,51.5c2.3,2.3,5.4,3.5,8.6,3.5h48.6
					c3.2,0,6.3-1.3,8.6-3.5l110.2-110.1c2.3-2.3,3.6-5.4,3.6-8.6v-48.5c0-3.2,1.3-6.3,3.5-8.6l139.4-139.5c2.3-2.3,3.5-5.4,3.5-8.6
					V3760c0-3.2-1.3-6.3-3.6-8.6l-22.2-22.2c-2.3-2.3-3.6-5.4-3.6-8.6v-107.2c0-3.2,1.3-6.3,3.5-8.6l168.8-168.7
					c2.3-2.3,3.5-5.4,3.5-8.6v-41.5c0-6.7-5.4-12.1-12.1-12.1h-100.1c-3.2,0-6.3-1.3-8.6-3.5l-51.6-51.5c-2.3-2.3-3.6-5.4-3.6-8.6
					v-48.6c0-3.2-1.3-6.3-3.5-8.6l-80.8-80.8c-2.3-2.3-3.5-5.3-3.5-8.6l0-46.1l-36.8-66.1H1991.4z"/>
				<path fill="#A5CF5A" d="M4188.1,3909.5l-33.2,33.3c-2.2,2.2-3.4,5.2-3.4,8.3v23.6c0,10.4,12.6,15.7,20,8.3l33.2-33.3
					c2.2-2.2,3.4-5.2,3.4-8.3v-23.6C4208.2,3907.4,4195.5,3902.2,4188.1,3909.5z"/>
				<path fill="#A5CF5A" d="M4103.1,3994.7l-4.2,4.2c-2.7,2.7-6.3,4.2-10,4.2h-46.1c-3.1,0-6.1,1.2-8.3,3.4l-45,45
					c-4.6,4.6-4.6,12,0,16.6l11.8,11.8c4.6,4.6,12,4.6,16.6,0l45-45.1c2.2-2.2,5.2-3.4,8.3-3.4h40.2c6.5,0,11.7-5.3,11.7-11.7V4003
					C4123.1,3992.5,4110.5,3987.3,4103.1,3994.7z"/>
			</g>
		</g>
	</g>
</g>
<rect x="1289" y="334.9" fill="#1C6497" width="226.8" height="160.2"/>
<g>
	<path fill="#1C6497" d="M1465.7,377.6h13.1v-38H1326v38h13.4c18-13.4,39.7-21.2,63.1-21.2C1425.9,356.4,1447.6,364.2,1465.7,377.6z
		"/>
</g>
<path fill="#FFFFFF" d="M2120.9,684.7c-8.4,0-15.2-6.8-15.2-15.2c0-1-0.8-1.7-1.7-1.7c-0.9,0-1.7,0.8-1.7,1.7
	c0,8.4-6.8,15.2-15.2,15.2c-0.9,0-1.7,0.8-1.7,1.7c0,0.9,0.8,1.7,1.7,1.7c8.4,0,15.2,6.8,15.2,15.2c0,1,0.8,1.7,1.7,1.7
	c1,0,1.7-0.8,1.7-1.7c0-8.4,6.8-15.2,15.2-15.2c0.9,0,1.7-0.8,1.7-1.7C2122.6,685.5,2121.8,684.7,2120.9,684.7"/>
<path fill="#FFFFFF" d="M856.8,1161.7c-24.4-4.6-33.4-17.5-37.3-37.3c-0.4-2.3-1.9-4.2-4.2-4.2c-2.3,0-3.7,1.9-4.2,4.2
	c-4.9,22.1-14.5,31-37.3,37.3c-2.2,0.6-4.2,1.9-4.2,4.2c0,2.3,2,3.6,4.2,4.2c24.1,6.6,34,15.9,37.3,37.3c0.4,2.3,1.9,4.2,4.2,4.2
	c2.3,0,3.8-1.9,4.2-4.2c3.4-21.1,14.6-33.3,37.3-37.3c2.3-0.4,4.2-1.9,4.2-4.2C861,1163.6,859.1,1161.7,856.8,1161.7"/>
<path fill="#FFFFFF" d="M2143.3,961.1c-24.4-4.6-33.4-17.5-37.3-37.3c-0.4-2.3-1.9-4.2-4.2-4.2c-2.3,0-3.7,1.9-4.2,4.2
	c-4.9,22.1-14.5,31-37.3,37.3c-2.2,0.6-4.2,1.9-4.2,4.2c0,2.3,2,3.6,4.2,4.2c24.1,6.6,34,15.9,37.3,37.3c0.4,2.3,1.9,4.2,4.2,4.2
	c2.3,0,3.8-1.9,4.2-4.2c3.4-21.1,14.6-33.3,37.3-37.3c2.3-0.4,4.2-1.9,4.2-4.2C2147.5,963,2145.6,961.1,2143.3,961.1"/>
<path fill="#FFFFFF" d="M1917.6,1173.5c-13.8-2.6-18.8-9.9-21-21c-0.3-1.3-1.1-2.4-2.4-2.4c-1.3,0-2.1,1.1-2.4,2.4
	c-2.8,12.5-8.2,17.5-21,21c-1.3,0.3-2.4,1.1-2.4,2.4c0,1.3,1.1,2,2.4,2.4c13.6,3.7,19.2,9,21,21c0.2,1.3,1.1,2.4,2.4,2.4
	c1.3,0,2.2-1.1,2.4-2.4c1.9-11.9,8.2-18.7,21-21c1.3-0.2,2.4-1.1,2.4-2.4C1920,1174.5,1918.9,1173.5,1917.6,1173.5"/>
<path fill="#FFFFFF" d="M2454.4,1163.6c-13.8-2.6-18.8-9.9-21-21c-0.3-1.3-1.1-2.4-2.4-2.4c-1.3,0-2.1,1.1-2.4,2.4
	c-2.8,12.5-8.2,17.5-21,21c-1.3,0.3-2.4,1.1-2.4,2.4c0,1.3,1.1,2,2.4,2.4c13.6,3.7,19.2,9,21,21c0.2,1.3,1.1,2.4,2.4,2.4
	c1.3,0,2.2-1.1,2.4-2.4c1.9-11.9,8.2-18.7,21-21c1.3-0.2,2.4-1.1,2.4-2.4C2456.7,1164.7,2455.7,1163.6,2454.4,1163.6"/>
<path fill="#FFFFFF" d="M796.3,676.3c-27.9-5.2-38.1-19.9-42.5-42.5c-0.5-2.6-2.1-4.8-4.8-4.8c-2.6,0-4.2,2.2-4.8,4.8
	c-5.6,25.2-16.5,35.3-42.5,42.5c-2.5,0.7-4.8,2.2-4.8,4.8c0,2.6,2.3,4.1,4.8,4.8c27.5,7.5,38.8,18.1,42.5,42.5
	c0.4,2.6,2.1,4.8,4.8,4.8c2.7,0,4.4-2.2,4.8-4.8c3.9-24,16.7-37.9,42.5-42.5c2.6-0.5,4.8-2.2,4.8-4.8
	C801.1,678.5,798.9,676.3,796.3,676.3"/>
<path fill="#FFFFFF" d="M1764.2,780.6c-27.9-5.2-38.1-19.9-42.5-42.5c-0.5-2.6-2.1-4.8-4.8-4.8c-2.6,0-4.2,2.2-4.8,4.8
	c-5.6,25.2-16.5,35.3-42.5,42.5c-2.5,0.7-4.8,2.2-4.8,4.8c0,2.6,2.3,4.1,4.8,4.8c27.5,7.5,38.8,18.1,42.5,42.5
	c0.4,2.6,2.1,4.8,4.8,4.8c2.7,0,4.4-2.2,4.8-4.8c3.9-24,16.7-37.9,42.5-42.5c2.6-0.5,4.8-2.2,4.8-4.8
	C1768.9,782.7,1766.8,780.6,1764.2,780.6"/>
<path fill="#FFFFFF" d="M1076.7,867.6c-17.3-3.2-23.7-12.4-26.5-26.5c-0.3-1.6-1.3-3-3-3c-1.6,0-2.6,1.4-3,3
	c-3.5,15.7-10.3,22-26.5,26.5c-1.6,0.4-3,1.3-3,3c0,1.6,1.4,2.6,3,3c17.1,4.7,24.1,11.3,26.5,26.5c0.3,1.6,1.3,3,3,3
	c1.7,0,2.7-1.4,3-3c2.4-15,10.4-23.6,26.5-26.5c1.6-0.3,3-1.3,3-3C1079.7,868.9,1078.3,867.6,1076.7,867.6"/>
<path fill="#FFFFFF" d="M490.6,992.2c-15.8-2.9-21.6-11.3-24.1-24.1c-0.3-1.5-1.2-2.7-2.7-2.7c-1.5,0-2.4,1.2-2.7,2.7
	c-3.2,14.3-9.4,20-24.1,24.1c-1.4,0.4-2.7,1.2-2.7,2.7c0,1.5,1.3,2.3,2.7,2.7c15.6,4.2,22,10.3,24.1,24.1c0.2,1.5,1.2,2.7,2.7,2.7
	c1.5,0,2.5-1.2,2.7-2.7c2.2-13.6,9.5-21.5,24.1-24.1c1.5-0.3,2.7-1.2,2.7-2.7C493.3,993.4,492.1,992.2,490.6,992.2"/>
<rect x="1382.6" y="362" fill="#FFFFFF" width="36.9" height="15.6"/>
<rect x="1291.4" y="93.5" fill="#7DB4D3" width="226.8" height="159.4"/>
<g>
	<path fill="#7DB4D3" d="M1518.2,476.1c-70.1,0-119.5,0-226.8,0c0-69.2,50.8-125.4,113.4-125.4
		C1467.4,350.7,1518.2,406.9,1518.2,476.1z"/>
	<rect x="1328.2" y="333.9" fill="#1C6497" width="152.8" height="38"/>
	<g>
		<polygon fill="#7DB4D3" points="632.8,405.6 866.4,405.6 1099.9,405.6 1297.6,239.7 1099.9,73.7 866.4,73.7 632.8,73.7 
			632.8,239.7 		"/>
		<rect x="690.1" y="121.7" fill="#1C6497" width="398.7" height="235.9"/>
		<line fill="none" stroke="#7DB4D3" stroke-width="10.9739" stroke-miterlimit="10" x1="995.9" y1="98.3" x2="713.2" y2="381"/>
		<line fill="none" stroke="#7DB4D3" stroke-width="32.9217" stroke-miterlimit="10" x1="1061.8" y1="98.3" x2="779" y2="381"/>
	</g>
	<g>
		<polygon fill="#7DB4D3" points="2169.4,405.6 1935.8,405.6 1702.3,405.6 1504.6,239.7 1702.3,73.7 1935.8,73.7 2169.4,73.7 
			2169.4,239.7 		"/>
		<rect x="1719.8" y="121.7" fill="#1C6497" width="398.7" height="235.9"/>
		<line fill="none" stroke="#7DB4D3" stroke-width="10.9739" stroke-miterlimit="10" x1="2026.1" y1="98.3" x2="1743.3" y2="381"/>
		<line fill="none" stroke="#7DB4D3" stroke-width="32.9217" stroke-miterlimit="10" x1="2091.9" y1="98.3" x2="1809.2" y2="381"/>
	</g>
	<g>
		<rect x="1238.6" y="121.7" fill="#916FB1" width="332.1" height="235.9"/>
		<rect x="1271.6" y="154.5" fill="#B79DCA" width="266.3" height="37.5"/>
	</g>
</g>
<circle fill="#7DB4D3" cx="1404.8" cy="271.6" r="29.7"/>
<path fill="none" d="M1965.7,1556.5c-11.4,0-22.5,2.7-32.4,7.6c-1,5-1.5,10.2-1.5,15.4c0,21,8.3,40.9,23.3,55.8
	c15.1,14.9,35.1,23.1,56.3,23.2c7.9,0,15.7-1.2,23.1-3.4c3.1-8.1,4.8-16.7,4.8-25.7c0-19.4-7.7-37.8-21.5-51.6
	C2003.8,1564.1,1985.3,1556.5,1965.7,1556.5z"/>
<path fill="#084361" stroke="#084361" stroke-width="63.2197" stroke-linecap="round" stroke-linejoin="round" stroke-miterlimit="10" d="
	M1797.7,1561.3c-4.7-13.3-11-24.8-19.3-34.8c1.5-3.2,2.7-6.3,3.8-9.3c4.7-13.8,7.2-28.7,7.2-44.2c0-15.9-2.7-30.9-8-44.4
	c-5.7-14.7-14.8-28.1-26.3-38.8c-11.3-10.5-25.5-18.8-41.1-23.8c-13.8-4.4-28.6-6.6-45.2-6.6h-16.6h-34.8H1536h-17.9l-0.6,64.5v9.2
	v326.3v9.3h9.3h75.9h54.7c16.5,0,31.2-2.2,44.9-6.7c15.3-5,29.2-13.1,40.3-23.5c4.5-4.2,8.5-9,12.2-14c2-2.2,3.8-4.5,5.6-6.8
	c6.3-6.9,11.8-14.5,16.1-22.8c1.2-1.8,2.3-3.7,3.3-5.6c0.2-0.3,0.4-0.6,0.6-0.9c7-8.8,12.8-18.6,16.9-29.2
	c2.5-40.9,6.4-88.7,9.9-126.8C1803.2,1541.6,1799.9,1551.3,1797.7,1561.3z"/>
<path fill="#084361" stroke="#084361" stroke-width="63.2197" stroke-linecap="round" stroke-linejoin="round" stroke-miterlimit="10" d="
	M2512.5,1720.6c-1-1.8-2-3.4-2.8-4.8c-1.7-3.1-3.2-5.6-4.8-8.1l-19.9-31.2c-26.6-41.7-54.2-84.8-81.7-127.1c-3-4.6-2.8-5.2-0.4-9
	c24.2-37.9,48.4-76.6,71.9-114.1l20-32c1.7-2.7,3.3-5.5,5.1-8.7l3-5.3l8.7-15h-17.4c-8.8,0-17.4,0-26,0c-8.3,0-16.6,0-24.8,0
	c-13.9,0-27.6-0.1-41.3-0.3l-0.7,0c-11.2,0-75,54.9-78.4,58.5c-10-15.6-19.9-31-29.9-46.1c-2.9-4.3-10-11.7-18.8-11.9
	c-18.8-0.3-37-0.4-52.3-0.4l-22.3,0l-23.4,0h-17.9l-32,37.8l8,13.1l-3.4,0c-34.9-33.7-80.9-52.3-129.8-52.3h-0.1
	c-50,0-96.9,19.3-132.1,54.3c-13.3,13.2-24.4,28-33,44.1c-3.9,6.1-7.3,12.4-10.4,18.9c-1.8,3.2-3.5,6.5-5.1,9.8
	c-2.4,3.5-4.7,7.2-6.8,10.9c-6.7,9.5-12.2,19.7-16.7,30.2c-3.4,38.1-7.4,86-9.9,126.8c0.1-0.2,0.2-0.3,0.2-0.5
	c1.2-3,2.2-6.2,3.1-9.4c8.1,26.6,22.8,51.1,43.2,71.3c32.5,32.3,75.8,50.1,121.9,50.1c35.6,0,69.4-10.7,98-30.3
	c3.6-2.1,7.2-4.1,10.6-6.5c13.2-7.4,25.4-16.7,36.6-27.4c11.7-7.3,22.7-15.9,32.7-25.9c31.5-31.1,50.2-71.5,53.9-115
	c5.2,8.1,10.4,16.2,15.7,24.2c3.3,5,3.3,6.6,0.3,11.3c-23.8,37.3-47.6,75.4-70.7,112.2l-20.6,32.8c-1.4,2.2-2.6,4.4-4.1,7l-2.5,4.3
	l-8.1,13.9h16.2l21.1,0l20.1,0c14.2,0,31-0.3,48.3-0.3c10.8,0,71.4-32.3,84.3-46.3c0.4-0.4,0.6-0.9,0.9-1.4
	c7.8,12.1,15.6,24.2,23.4,36.2c3.4,5.2,8.9,11.3,16.1,11.5c18.2,0.3,36.1,0.4,51.1,0.4l20.1,0l20.8,0h16.2l85.5-35.6L2512.5,1720.6z
	 M2024.4,1625c-7.4,2.2-15.2,3.4-23.1,3.4c-21.2,0-41.2-8.3-56.3-23.2c-15-14.9-23.3-34.8-23.3-55.8c0-5.2,0.5-10.4,1.5-15.4
	c10-4.9,21-7.6,32.4-7.6c19.6,0,38,7.6,52,21.4c13.8,13.8,21.5,32.1,21.5,51.6C2029.2,1608.3,2027.5,1616.9,2024.4,1625z"/>
<ellipse fill="#084361" stroke="#084361" stroke-width="21.1523" stroke-miterlimit="10" cx="2204.9" cy="1626.2" rx="8.5" ry="10.1"/>
<ellipse fill="#FDDA00" cx="1024.5" cy="1735.7" rx="40.1" ry="44"/>
<path fill="#084361" stroke="#084361" stroke-width="63.2197" stroke-linejoin="round" stroke-miterlimit="10" d="M1196.5,1464.8
	c-10.4-22.7-22.3-41.5-37.9-58c-15.5-16.4-35.2-29.4-56.7-37.5c-20.4-7.7-43.2-11.7-67.8-11.7h-0.1c-24.7,0-47.6,4-68.1,11.8
	c-21.6,8.2-41.2,21.3-56.8,37.9l-1,1.1v0c-15.2,16.4-26.7,36.2-34.1,58.9c-3.9,12-6.6,24.7-8.3,38.1c0-0.1-0.1-0.2-0.1-0.3
	c-5.1-11-11.2-21.2-18.3-30.2c-3-3.8-6.2-7.5-9.5-11c-0.3-0.4-0.6-0.9-0.9-1.3c-3.2-4.1-6.6-8.1-10.3-11.8c-0.1-0.2-0.2-0.3-0.3-0.5
	c-0.1-0.1-0.2-0.2-0.3-0.3c-2.5-3.9-5.1-7.9-7.9-11.5c-0.2-0.3-0.5-0.5-0.7-0.8c-2.4-3.8-4.9-7.6-7.6-11c-2.2-2.8-4.6-5.4-7-8
	c-1-1.3-1.8-2.8-2.8-4.1c-13.6-17.5-31.1-31.8-50.6-41.4c-21-10.4-46.1-15.9-72.6-15.9c-32.7,0-62.8,7.5-87.1,21.8
	c-7.2,4.2-14.2,9.2-20.8,14.9c-9.4-8.2-19.7-15.1-30.8-20.5c-21-10.4-46.1-15.9-72.5-15.9c-32.6,0-62.7,7.5-87,21.7
	c-17.1,9.9-32.3,23.7-43.9,39.9c-13.7,19-23,41-28.5,67c-3.4,16.5-5.1,33.9-5.2,53.1V1737l85.5,35.5h9.3h87.7h9.3v-9.2v-173
	c0-8.8,0.7-17.3,1.9-24.5c1.1-6.4,2.8-12.3,4.8-17c1.5-3.4,3.1-6.4,5-8.8c2.3-2.9,4.5-4.8,7.4-6.5c0,0.4,0,0.8,0,1.1l-0.1,192.3
	l0,10l69.3,35.5h9.3h88.2h9.3v-9.2v-173c0-6.1,0.3-15.3,1.9-24.4c1.1-6.4,2.8-12.2,4.8-16.9c1.5-3.4,3.1-6.3,5-8.7
	c2.9-3.6,5.5-5.8,9.7-7.7c3.7-1.7,8.1-2.8,13.2-3.5c0.2,2.9,0.4,5.7,0.4,8.4v188.4v10l53.1,35.7h9.3h88.2h9.3v-9.3v-12.8l2.6,22.1
	H1005v-10.2v-86.1h91.8v48.4v10l24.5,35.8h9.3h32.1h16.1h32.1h9.3v-9.2V1587c0-23.6,2-46.6-4.4-65.8
	C1215.3,1519.4,1197.4,1467.4,1196.5,1464.8z M1036.2,1524.9c7.4-2.9,16.6-4.3,27.1-4.3c10.6,0,19.8,1.5,27.3,4.3
	c0.2,0.1,0.3,0.2,0.5,0.2h-55.4C1035.8,1525,1036,1524.9,1036.2,1524.9z"/>
<path fill="#084361" stroke="#084361" stroke-width="63.2197" stroke-linecap="round" stroke-linejoin="round" stroke-miterlimit="10" d="
	M1509.4,1540.5c0.5-3.4,0.9-6.8,1.1-10.3c0.2-1.8,0.5-3.5,0.7-5.3c1.5-8.8,2.3-17.9,2.3-27.4c0-18.9-3.1-36.6-9.3-52.5
	c-6.6-17.1-17.1-32.6-30.5-45c-13.1-12.2-29.7-21.8-47.9-27.7c-16.5-5.3-34.3-7.9-54.4-7.9h0h-67.9h-6.6h-43.5h-21.7v10v350.5v10
	l-1.4,34.6h126.1v-8.1V1674h20.7c18.3,0,34.5-2.4,49.6-7.4c16.6-5.4,31.7-14.2,43.7-25.5c12.2-11.3,21.8-25.7,27.9-41.5
	c3.9-10.1,6.4-21,7.6-32.5c0.6-3.3,1-6.7,1.4-10.1C1508.4,1551.6,1509,1546.1,1509.4,1540.5z"/>
<g>
	<path fill="#FFFFFF" d="M514,1734l0.1-199.8c-0.1-4.8-0.8-14.7-3.4-25.4c-2.6-10.6-6.7-20.1-11.5-26.7c-3.2-4.3-6.5-7.5-10.5-9.9
		c-4.6-2.7-11.7-5.9-26-6c-11.9,0-21.3,1.7-28.8,5.2c-5.3,2.5-8.8,5.4-12.4,10.1c-2.3,3-4.3,6.6-6,10.6c-2.4,5.6-4.3,12.4-5.6,19.8
		c-1.4,8.2-2.2,17.7-2.2,27.7V1734H302.3v-194.4c0-19.1,1.7-36.3,5.1-52.7c5.3-25.6,14.4-47.2,27.8-65.9c11.3-15.8,26-29.3,42.5-39
		c23.6-13.9,52.8-21.2,84.7-21.2c25.7,0,50.1,5.4,70.5,15.5c12,5.9,23.1,13.7,33.1,23.1c7.4-6.9,15.3-12.7,23.5-17.6
		c23.6-13.9,52.9-21.3,84.8-21.3c25.8,0,50.2,5.4,70.6,15.6c18.9,9.3,35.8,23.3,48.9,40.4c7.4,9.6,13.9,20.3,19.2,32.1
		c5.9,12.8,10.4,26.9,13.6,41.7c3.3,15.6,5,31.5,5,47.1v195.5H725.8v-195.5c0-9-1.3-19.6-3.5-28.4c-2.6-10.6-6.6-20-11.5-26.6
		c-3.2-4.3-6.5-7.5-10.4-9.9c-4.5-2.7-11.6-5.9-25.8-6c-11.9,0-21.2,1.7-28.7,5.2c-5.2,2.5-8.7,5.3-12.4,10c-2.2,2.9-4.3,6.5-6,10.6
		c-2.4,5.5-4.3,12.3-5.6,19.7c-1.8,10.3-2.2,20.7-2.2,27.7V1734L514,1734L514,1734z"/>
	<path fill="#0A4361" d="M674.3,1365.6c25.3,0,48.7,5.2,68.4,15c18.2,9,34.5,22.4,47.2,38.9c7.2,9.3,13.5,19.8,18.6,31.1
		c5.7,12.5,10.2,26.2,13.3,40.7c3.2,15.3,4.9,30.8,4.9,46v190.5h-95.9v-190.5c0-9.3-1.3-20.4-3.6-29.6c-2.7-11.2-7.1-21.3-12.3-28.3
		c-3.6-4.8-7.3-8.4-11.8-11.2c-5.1-3.1-13-6.6-28.4-6.7c-12.6,0-22.7,1.9-30.8,5.6c-6,2.8-10.1,6.2-14.2,11.5
		c-2.5,3.2-4.7,7.2-6.7,11.7c-2.5,5.9-4.6,13.1-5.9,20.8c-1.9,10.7-2.3,21.4-2.3,28.5V1729H519l0.1-194.8c-0.1-5-0.8-15.4-3.6-26.6
		c-2.7-11.2-7.1-21.3-12.3-28.4c-3.6-4.9-7.3-8.5-11.9-11.2c-5.1-3.1-13.1-6.7-28.6-6.8c-12.7,0-22.8,1.9-31,5.7
		c-6,2.9-10.2,6.2-14.3,11.5c-2.5,3.3-4.8,7.3-6.7,11.8c-2.5,5.9-4.6,13.1-5.9,20.8c-1.5,8.5-2.3,18.3-2.3,28.6V1729h-95.3v-189.4
		c0-18.7,1.6-35.6,5-51.6c5.2-24.9,14-45.9,26.9-64c10.9-15.2,25-28.2,41-37.5c22.8-13.5,51.2-20.6,82.1-20.6
		c25.2,0,48.6,5.2,68.3,15c12.9,6.4,24.8,15,35.3,25.5c8.1-8,16.8-14.8,26.1-20.2C614.8,1372.7,643.3,1365.6,674.3,1365.6
		 M674.3,1355.5c-32.8,0-63,7.6-87.4,22c-7.3,4.3-14.3,9.3-20.9,15.1c-9.4-8.3-19.8-15.3-30.9-20.8c-21.1-10.5-46.2-16-72.7-16
		c-32.7,0-62.9,7.6-87.2,21.9c-17.1,10-32.3,24-44,40.3c-13.7,19.3-23.1,41.4-28.6,67.7c-3.5,16.7-5.2,34.3-5.2,53.7V1729v10h10
		h95.3h10v-10v-189.4c0-9.7,0.7-19,2.1-26.8c1.2-7,3-13.4,5.2-18.6c1.6-3.7,3.4-6.9,5.5-9.6c3.1-4,6-6.3,10.6-8.6
		c6.7-3.1,15.5-4.7,26.6-4.7c13,0.1,19.3,2.9,23.4,5.3c3.3,2.1,6.1,4.7,9,8.6c4.5,6.1,8.2,14.9,10.7,24.9
		c2.7,10.6,3.2,20.7,3.3,24.5l-0.1,194.5l0,10h10h95.9h10v-10v-189.4c0-6.8,0.4-16.9,2.1-26.8c1.2-7,3-13.4,5.2-18.6
		c1.6-3.8,3.4-7,5.4-9.6c3.1-4,6-6.3,10.6-8.5c6.7-3.1,15.4-4.7,26.5-4.7c12.9,0.1,19.2,2.9,23.2,5.3c3.3,2,6.1,4.7,8.9,8.5
		c4.4,6,8.2,14.8,10.6,24.8c2.1,8.5,3.4,18.7,3.4,27.3v190.5v10h10h95.9h10v-10v-190.5c0-15.9-1.7-32.1-5.1-48.1
		c-3.2-15.2-7.9-29.6-14-42.8c-5.5-12.1-12.2-23.2-19.8-33.1c-13.6-17.7-31.1-32.1-50.7-41.8C726,1361.1,700.8,1355.5,674.3,1355.5
		L674.3,1355.5z"/>
</g>
<g>
	<path fill="#FFFFFF" d="M866.8,1731.8v-193.6c0-26.1,3.3-49,10.2-70.1c7.3-22.6,18.6-42.2,33.6-58.3l0.5-0.5
		c15.1-16.2,34.2-29,55.1-37c19.9-7.7,42.3-11.6,66.5-11.6c24.1,0,46.4,3.9,66.3,11.5c20.9,7.9,39.9,20.6,55,36.7
		c15.2,16.1,26.6,35.6,34,58c6.8,20.6,10.2,43.8,10.2,69.1v194.7h-97.4v-103.2H964.1v104.5L866.8,1731.8L866.8,1731.8z M1100.7,1530
		c-0.4-12.5-2.2-23.4-5.2-32.6c-3-9-6.9-15.9-12.4-21.7c-5.4-5.7-11.3-9.6-19-12.6c-8.7-3.3-19.3-5-31.5-5
		c-12.1,0-22.7,1.7-31.4,5.1c-7.8,3-13.7,7-19.2,12.8l-0.3,0.3c-5.3,5.8-9.2,12.8-12.2,21.9c-2.9,8.9-4.6,19.5-5.2,31.7L1100.7,1530
		L1100.7,1530z"/>
	<path fill="#0A4361" d="M1032.7,1365.7c22.6,0,44.4,3.4,64.5,11.1c20.1,7.7,38.4,19.8,53.2,35.4v0c15,15.9,26,35.2,32.9,56.1
		c6.9,21,10,43.6,10,67.5v189.7h-34.9h-17.5h-34.9v-103.2H959.1v104.5h-35h-17.5h-34.9v-188.6c0-24.4,3.1-47.3,10-68.6
		c6.9-21.2,17.9-40.8,33-56.9l0,0c14.8-15.8,33.1-28,53.3-35.8C988.2,1369.1,1010,1365.7,1032.7,1365.7 M978.4,1472.5L978.4,1472.5
		c-5.5,5.9-10.1,13.4-13.6,24.1c-3.2,10-5.3,22.8-5.6,38.3h146.5c-0.1-16-2.2-29.1-5.5-39.2c-3.5-10.4-7.9-17.7-13.5-23.6
		c-5.9-6.1-12.3-10.5-20.9-13.8c-8.6-3.3-19.4-5.4-33.3-5.4c-13.8,0-24.6,2.1-33.2,5.4C990.9,1461.8,984.4,1466.2,978.4,1472.5
		 M1032.7,1355.6c-24.8,0-47.7,4-68.3,12c-21.6,8.3-41.3,21.5-57,38.3l-1,1.1l0,0c-15.2,16.5-26.7,36.6-34.2,59.6
		c-7,21.6-10.4,45.1-10.4,71.7v188.6v10h10h34.9h17.5h35h10v-10v-94.4h126.7v93.2v10h10h34.9h17.5h34.9h10v-10v-189.7
		c0-25.8-3.5-49.6-10.5-70.7c-7.2-21.8-18-40.9-32.4-56.9v-0.1l-2.7-2.9c-15.6-16.6-35.3-29.7-56.9-37.9
		C1080.3,1359.6,1057.4,1355.6,1032.7,1355.6L1032.7,1355.6z M985.4,1479.7l0.3-0.3c5-5.3,10.4-8.9,17.4-11.6
		c8.1-3.1,18-4.7,29.5-4.7c11.6,0,21.5,1.6,29.7,4.7c7,2.7,12.3,6.2,17.2,11.4c4.8,5.2,8.4,11.5,11.2,19.8c2.4,7.3,4,16.1,4.7,26
		H969.7c0.7-9.6,2.3-18.1,4.6-25.2C977.1,1491.3,980.6,1485,985.4,1479.7L985.4,1479.7z"/>
</g>
<path fill="#FFFFFF" d="M1237.9,1731.8v-364.4h133.5c19.6,0,36.9,2.6,53,7.8c17.6,5.7,33.5,15,46.2,26.8
	c12.8,11.9,22.9,27,29.3,43.6c6,15.5,9,32.8,9,51.3c0,18.4-3,35.6-8.9,51.1c-6.3,16.5-16.3,31.6-29,43.5
	c-12.5,11.8-28.3,21.1-45.6,26.8c-16,5.2-33.1,7.8-52.4,7.8h-27.7v105.8h-97.4L1237.9,1731.8z M1372.9,1528.7
	c10.8,0,17.8-1.6,21.8-2.9c5.2-1.8,7.6-3.6,9.3-5.2c2.3-2.2,3.6-4.2,4.9-7.5c1.6-4.2,2.4-9.7,2.4-16.2c0-6.5-0.8-11.9-2.5-16.1
	c-1.3-3.3-2.7-5.4-5.1-7.7c-1.7-1.5-4.2-3.4-9.7-5.2c-4.2-1.4-11.5-3-22.7-3h-26.2v63.9H1372.9z"/>
<path fill="#0A4361" d="M1371.4,1372.4c17.9,0,35.1,2.2,51.5,7.5c16.3,5.3,31.6,13.8,44.3,25.7c12.4,11.5,22,26,28,41.7
	c6.1,15.7,8.7,32.5,8.7,49.5c0,16.9-2.6,33.6-8.6,49.3c-6,15.6-15.5,30.1-27.8,41.7c-12.5,11.8-27.7,20.4-43.7,25.7
	c-16.1,5.3-33.1,7.6-50.8,7.6h-32.7v105.8h-35h-17.5h-45v-354.4h53.7h6.6H1371.4 M1340.3,1533.7h32.7c10.2,0,17.9-1.4,23.4-3.1
	c5.5-1.9,8.7-3.9,11.2-6.3h0c2.7-2.6,4.5-5.2,6.2-9.4c1.6-4.1,2.8-9.9,2.8-18.1c0-8.1-1.2-13.9-2.8-18c-1.6-4.1-3.5-6.8-6.3-9.5
	c-2.5-2.3-5.8-4.5-11.6-6.4c-5.7-1.9-13.7-3.2-24.3-3.2c0,0-0.1,0-0.1,0h-31.1L1340.3,1533.7 M1371.4,1362.4L1371.4,1362.4h-68.2
	h-6.6h-43.7h-30.1v10v354.4v10h30.1h34.9h17.5h35h10v-10V1631h22.7c19.8,0,37.4-2.6,53.9-8.1c18-5.9,34.5-15.6,47.5-27.9
	c13.2-12.4,23.7-28.1,30.3-45.4c6.1-16,9.2-33.8,9.2-52.9c0-19.1-3.1-37-9.4-53.1c-6.6-17.2-17.2-33-30.5-45.4
	c-13.1-12.4-29.8-22-48-27.9C1409.3,1365,1391.5,1362.4,1371.4,1362.4L1371.4,1362.4z M1350.3,1469.8h21.1c10.7,0,17.5,1.5,21.3,2.7
	c4.5,1.5,6.5,3,7.9,4.2c1.8,1.7,2.7,3.1,3.8,5.8c1.4,3.6,2.1,8.4,2.1,14.3c0,5.8-0.7,10.8-2.1,14.5c-1.1,2.8-2.2,4.2-3.7,5.7
	c-1.2,1.1-3.1,2.5-7.4,4c-3.6,1.2-10.1,2.6-20.2,2.6h-22.7L1350.3,1469.8L1350.3,1469.8z"/>
<g>
	<path fill="#FFFFFF" d="M1531.4,1729.7v-367.3h138.3c16.1,0,30.4,2.1,43.8,6.5c14.9,4.8,28.6,12.8,39.4,22.9
		c11,10.2,19.7,23.2,25.1,37.3c5.1,13.1,7.6,27.6,7.6,43c0,15.1-2.3,29.5-6.9,43c-1.3,3.7-2.9,7.6-5,11.9
		c9.2,10.6,16.1,22.9,21,37.4c4.9,14.8,7.5,30.7,7.5,47.2c0,16.7-2.7,32.4-8.1,46.5c-5.8,15.2-15,29-26.7,40l-0.6,0.5
		c-11.4,10.6-25.7,19-41.3,24.1c-14.4,4.7-29.9,7.1-47.2,7.1L1531.4,1729.7L1531.4,1729.7z M1678.3,1632.3c8.9,0,14.3-1.4,16.7-2.2
		c3.4-1.1,4.7-2.2,5.6-3c1-1,1.7-1.9,2.5-4c0.8-1.9,1.7-5.6,1.7-11.6c0-4.8-0.7-9.9-1.8-14.1c-1.1-4-2.5-6.5-2.8-6.9
		c-0.8-0.7-2.2-1.7-5.6-2.8c-2.6-0.8-8.2-2.3-17.6-2.3h-48.1v46.8L1678.3,1632.3L1678.3,1632.3z M1670.9,1487.8
		c7.3,0,11.3-1.1,12.7-1.6c1.1-0.4,1.7-0.7,2.1-0.9c0.2-0.4,0.5-1,0.7-1.8c0.8-2.3,1.7-6.6,1.7-11.4c0-4.5-0.7-6.9-1.1-8
		c-0.4-0.9-0.4-0.9-1-1.5c-0.1-0.1-0.6-0.5-2.8-1.3c-1.9-0.6-6.1-1.7-13.5-1.7h-41v28.1L1670.9,1487.8L1670.9,1487.8z"/>
	<g id="XMLID_12_">
		<g>
			<path fill="#0A4361" d="M1799.4,1562.8c5.1,15.3,7.7,31.7,7.8,48.7c0,17.3-2.9,33.6-8.5,48.2c-6,15.9-15.6,30.4-27.8,41.9l-1.1,1
				c-11.9,10.9-26.5,19.4-42.7,24.7c-14.9,4.9-30.9,7.3-48.8,7.3h-59.4h-82.4h-10v-10v-357.3v-10h10h81.7h34.9h16.6
				c16.6,0,31.5,2.2,45.4,6.7c15.6,5.1,29.9,13.4,41.2,24c11.6,10.8,20.7,24.3,26.3,39.2c5.3,13.7,8,28.9,8,44.9
				c0,15.6-2.5,30.7-7.2,44.7c-1.1,3-2.3,6.1-3.8,9.4C1788.1,1536.7,1794.7,1548.7,1799.4,1562.8z M1797.2,1611.5
				c0-15.3-2.3-30.7-7.2-45.6c-4.5-13.2-11.4-26.3-22.3-38.2c2.4-4.7,4.6-9.5,6.2-14.3c4.7-13.6,6.7-27.4,6.7-41.4
				c0-13.9-2.2-27.9-7.3-41.3c-5.1-13.2-13.3-25.6-23.8-35.5c-10.8-10.1-23.9-17.4-37.5-21.8c-13.6-4.4-27.7-6.2-42.3-6.2h-16.5h-35
				h-81.7v357.3h82.4h59.4c15.7,0,31.1-2,45.7-6.8c14.6-4.8,28.6-12.6,40-23.5h0.1c11.2-10.5,19.9-23.8,25.3-38.1
				C1794.9,1641.9,1797.2,1626.8,1797.2,1611.5z"/>
			<path fill="#FFFFFF" d="M1707.9,1596.1c1.2,4.4,2,10,2,15.4c-0.1,6.4-1,10.7-2.1,13.4c-1.1,2.7-2.1,4.1-3.8,5.8
				c-1.5,1.4-3.4,2.7-7.4,4.1c-3.9,1.3-10,2.4-18.2,2.4h-54.5v-56.9h53.1c8.7,0,15,1.2,19.2,2.5c4.2,1.4,6.2,2.8,7.7,4.2l0.3,0.3
				C1704.9,1588.4,1706.7,1591.6,1707.9,1596.1z M1699.9,1611.5c0-4.3-0.6-9.1-1.7-12.8c-0.6-2.3-1.3-4-1.8-4.8
				c-0.6-0.4-1.5-0.9-3.3-1.5c-2.3-0.7-7.4-2-16-2h-43.2v36.9h44.5c8.2,0,13-1.2,15.1-1.9c2.7-0.9,3.4-1.6,3.5-1.7
				c0.7-0.7,1-1,1.5-2.3C1699,1620,1699.9,1617,1699.9,1611.5z"/>
			<path fill="#FFFFFF" d="M1691.7,1462.4c0.7,1.7,1.5,4.7,1.5,9.7c0,5.1-0.9,9.9-2,13c-0.5,1.6-1.1,2.7-1.4,3.2l-0.2,0.4l-0.1,0.1
				l-0.5,0.4c-0.7,0.5-1.8,1-3.7,1.7c-2.9,1-7.6,1.9-14.4,1.9h-47.1v-38.2h29.3h16.6c0.1,0,0.1,0,0.1,0c7.1,0,12.1,1,15.1,2
				c3,1,4.1,1.8,4.7,2.4C1690.6,1460.1,1691,1460.7,1691.7,1462.4z M1683.2,1472.1c0-2.9-0.4-4.7-0.6-5.6c-0.3-0.1-0.5-0.2-0.9-0.3
				c-1.2-0.5-5-1.5-12-1.5h-16.6h-19.2v18.1h37.1c6.5,0,9.9-1,11-1.3C1682.6,1479.4,1683.2,1475.9,1683.2,1472.1z"/>
		</g>
		<g>
		</g>
	</g>
</g>
<g>
	<path fill="#FFFFFF" d="M2003.5,1731.9c-48.8,0-94.6-19-128.9-53.4c-34.5-34.4-53.5-80.2-53.4-128.9c0-48.7,18.9-94.5,53.4-129
		c34.4-34.4,80.1-53.4,128.9-53.4c48.9,0,94.7,19,129,53.4c34.5,34.4,53.4,80.2,53.4,129c0,48.8-18.9,94.5-53.4,128.9
		C2098.1,1712.9,2052.3,1731.9,2003.5,1731.9L2003.5,1731.9z M2003.5,1464.5c-22.7,0-44,8.9-60.1,24.9c-16,16.1-24.9,37.4-24.9,60.1
		c0,22.6,8.9,44,24.9,60.1c16.1,16,37.4,24.8,60.1,24.9c22.6,0,44-8.9,60.1-24.9c16-16.1,24.9-37.4,24.9-60.1
		c0-22.7-8.9-44-24.9-60.1C2047.5,1473.4,2026.1,1464.5,2003.5,1464.5z"/>
	<path fill="#0A4361" d="M2003.5,1372.1c48.8,0,93.4,19.9,125.3,52c32,32,52,76.6,52,125.4c0,48.8-19.9,93.4-52,125.4
		c-31.9,32-76.5,52-125.3,52c0,0-0.1,0-0.1,0c0,0-0.1,0-0.1,0c-48.8,0-93.4-19.9-125.3-52c-32-31.9-52-76.6-52-125.4
		c0-48.8,19.9-93.5,52-125.4c31.9-32,76.5-52,125.4-52C2003.4,1372.1,2003.5,1372.1,2003.5,1372.1
		C2003.5,1372.1,2003.5,1372.1,2003.5,1372.1 M2003.5,1639.5c25,0,47.2-10,63.6-26.4c16.4-16.4,26.3-38.6,26.4-63.6
		c0-25-10-47.2-26.4-63.6c-16.4-16.4-38.6-26.3-63.6-26.4c-25,0-47.2,10-63.6,26.4c-16.4,16.4-26.3,38.6-26.4,63.6
		c0,25,10,47.2,26.4,63.6C1956.3,1629.5,1978.5,1639.5,2003.5,1639.5 M2003.5,1362.1L2003.5,1362.1c-50.2,0-97.3,19.5-132.6,54.9
		c-35.4,35.3-54.9,82.4-54.9,132.5c0,50.1,19.5,97.1,54.9,132.5c35.3,35.4,82.3,54.9,132.4,54.9c50.2,0,97.3-19.5,132.6-54.9
		c35.4-35.3,54.9-82.4,54.9-132.5c0-50.1-19.5-97.2-54.9-132.5C2100.7,1381.6,2053.6,1362.1,2003.5,1362.1L2003.5,1362.1z
		 M2003.5,1629.5c-21.3,0-41.4-8.4-56.6-23.4c-15.1-15.1-23.4-35.2-23.4-56.5c0-21.3,8.3-41.4,23.4-56.5
		c15.1-15.1,35.2-23.4,56.6-23.4c21.3,0,41.4,8.4,56.5,23.5c15.1,15.1,23.4,35.2,23.4,56.5c0,21.3-8.4,41.4-23.5,56.6
		C2044.9,1621.1,2024.8,1629.4,2003.5,1629.5L2003.5,1629.5z"/>
</g>
<g>
	<path fill="#FFFFFF" d="M2166.4,1732.7l7.1-12.3c1.6-2.8,2.9-5.1,4.4-7.5l22.8-36.6c25.3-40.8,50.7-81.6,76.4-122.2
		c4.4-6.9,4.3-10.8-0.4-17.9c-23.8-36.5-47.5-74-70.5-110.2l-23.8-37.5c-1.4-2.3-2.8-4.5-4.5-7.5l-7.5-12.5l54.4-0.1
		c17.8,0,35.3,0.1,52.8,0.4c6.2,0.1,12.1,5.9,14.6,9.7c12.9,19.7,25.6,39.6,38.7,60.2l8.8,13.9c1.1-1.6,2.1-3.2,3.1-4.8l10.5-16.8
		c10.5-16.8,21.4-34.2,31.7-51.5c4.7-7.9,10.7-11.3,20.1-11.3c14.5,0.2,28.3,0.3,42.4,0.3l59.4-0.1l-7.3,12.8c-1.8,3.3-3.4,6-5,8.7
		l-19.4,31.2c-23.7,38.2-48.3,77.8-72.8,116.5c-3.6,5.7-3.5,8.6,0.4,14.6c27.3,42.3,54.3,84.8,81.2,127.4l20.7,32.6
		c1.5,2.4,2.9,4.8,4.5,7.7l7.4,12.8l-53.1,0c-18.7,0-37.1-0.1-55.5-0.4c-5.9-0.1-10.8-6.5-13.2-10.2c-15.2-23.5-30.3-47.2-45.7-71.6
		l-8.3-13.1l-30.5,48.8l-6.8,10.9c-5.4,8.8-11.1,18-17,26.8c-2.8,4.1-8.6,8.5-14,8.6c-17.4,0.3-34.9,0.3-52.7,0.3L2166.4,1732.7z"/>
	<path fill="#0A4361" d="M2405,1373.3c0.2,0,0.4,0,0.6,0c13.9,0.2,27.7,0.3,41.8,0.3c16.6,0,33.4-0.1,50.8-0.1
		c-3.3,5.8-5.5,9.9-8,13.9c-30.6,49.3-61.1,98.6-92.2,147.6c-4.9,7.7-4.3,12.7,0.4,20c34.3,53.1,68,106.6,101.9,159.9
		c2.3,3.6,4.3,7.4,7.4,12.7c-15.1,0-29.8,0-44.4,0c-18.7,0-37-0.1-55.4-0.4c-3.1-0.1-7-4.6-9.1-7.9c-19.3-29.9-38.3-59.9-58.3-91.4
		c-12,19.2-23.3,37.3-34.7,55.5c-7.8,12.6-15.4,25.3-23.7,37.6c-2.1,3.1-6.5,6.3-10,6.3c-17.4,0.3-34.8,0.3-52.6,0.3
		c-14.5,0-29.3,0-44.6,0c2.9-5,4.8-8.6,7-12.1c35.4-56.8,70.5-113.8,106.4-170.3c-34.6-52.8-68.1-106.3-101.9-159.5
		c-2.1-3.3-4.1-6.7-7.4-12.3c15.5,0,30.6-0.1,45.5-0.1c17.8,0,35.3,0.1,52.7,0.4c3.6,0.1,8.3,4,10.5,7.4
		c17.1,26.1,33.7,52.5,51.6,80.5c3-4.4,5.3-7.7,7.5-11.2c14.2-22.7,28.6-45.3,42.3-68.4C2393.2,1375.5,2397.7,1373.3,2405,1373.3
		 M2405,1363.3L2405,1363.3c-11.2,0-18.7,4.2-24.4,13.8c-10.3,17.3-21.1,34.6-31.7,51.4c-3.1,5-6.3,9.9-9.4,14.9l-4.6-7.3
		c-13.2-20.8-25.8-40.5-38.7-60.3c-2.9-4.4-10-11.8-18.8-12c-18.9-0.3-37.4-0.4-52.9-0.4l-22.2,0l-23.3,0h-17.7l9.2,15.2l2.9,4.9
		c1.8,3,3.2,5.3,4.6,7.6c8,12.5,15.9,25,23.8,37.5c23,36.2,46.7,73.7,70.5,110.3c3.6,5.5,3.6,7.3,0.3,12.5
		c-25.7,40.6-51.5,82.1-76.4,122.2l-22.7,36.6c-1.5,2.4-2.9,4.8-4.5,7.6l-2.7,4.7l-8.7,15h17.4l22.8,0l21.7,0
		c15.5,0,33.9,0,52.8-0.3c7.5-0.1,14.6-5.6,18.1-10.7c6-8.9,11.7-18.1,17.2-27c2.2-3.6,4.5-7.3,6.7-10.9c8.7-13.9,17.3-27.7,26.3-42
		l4.1,6.4c15.7,24.7,30.5,48,45.8,71.6c3.6,5.6,9.6,12.4,17.4,12.5c19.8,0.4,39.2,0.4,55.6,0.4l21.8,0l22.6,0h17.4l-8.8-15.1
		c-1.1-1.9-2.1-3.6-3-5.2c-1.7-3-3.1-5.4-4.6-7.9l-20.7-32.6c-26.5-41.8-53.9-85.1-81.3-127.4c-3-4.6-2.8-5.4-0.4-9.2
		c24.5-38.7,49.1-78.2,72.8-116.5l19.4-31.2c1.7-2.7,3.3-5.5,5.1-8.9l3-5.3l8.6-15h-17.3c-8.8,0-17.4,0-26,0c-8.3,0-16.6,0-24.8,0
		c-14,0-27.8-0.1-41.6-0.3L2405,1363.3L2405,1363.3L2405,1363.3z"/>
</g>
<path fill="#084361" d="M1611.6,1440v57.6h46.2c15.9,0,28.8-12.9,28.8-28.8v-0.1c0-15.9-12.9-28.8-28.8-28.8H1611.6z"/>
<path fill="#084361" d="M1611.6,1568.7v71.4h61c19.7,0,35.7-16,35.7-35.7v-0.1c0-19.7-16-35.7-35.7-35.7H1611.6z"/>
<path fill="#084361" d="M1376.8,1544h-48.2v-94.8h52.5c25,0,45.3,20.3,45.3,45.3v0C1426.4,1521.9,1404.2,1544,1376.8,1544z"/>
<path fill="#084361" d="M1105.8,1549.6H959.6v-32.8c0-40.4,32.7-73.1,73.1-73.1h0c40.4,0,73.1,32.7,73.1,73.1V1549.6z"/>
</svg>
